<svg xmlns="http://www.w3.org/2000/svg" width="500" height="300" viewBox="40 20 500 300">
<!-- Maplog example: the Dungeon Crawling status block, drawn -->
<rect x="40" y="20" width="500" height="300" fill="#fff"/><path d="M60 40H340V170H480V223M480 247V300H200V170H258M282 170H340V223M340 247V300M60 40V170H200M200 40V93M200 117V170" fill="none" stroke="#000" stroke-width="4" stroke-linecap="square" stroke-linejoin="miter"/><rect x="400" y="40" width="120" height="80" fill="none" stroke="#000" stroke-width="4" stroke-dasharray="6 5"/><g transform="translate(200 105) rotate(90)"><path d="M-32 0H-12M12 0H32" fill="none" stroke="#000" stroke-width="4" stroke-linecap="square" stroke-linejoin="miter"/><rect x="-12" y="-5" width="24" height="10" fill="#000" stroke="#000" stroke-width="2.5"/></g><g transform="translate(270 170)"><path d="M-32 0H-12M12 0H32" fill="none" stroke="#000" stroke-width="4" stroke-linecap="square" stroke-linejoin="miter"/><rect x="-12" y="-5" width="24" height="10" fill="none" stroke="#000" stroke-width="2.5"/></g><g transform="translate(340 235) rotate(90)"><path d="M-32 0H-12M12 0H32" fill="none" stroke="#000" stroke-width="4" stroke-linecap="square" stroke-linejoin="miter"/></g><g transform="translate(480 235) rotate(90)"><path d="M-32 0H-12M12 0H32" fill="none" stroke="#000" stroke-width="4" stroke-linecap="square" stroke-linejoin="miter"/><path d="M-12 0V-30M12 0V-30" fill="none" stroke="#000" stroke-width="4" stroke-dasharray="6 5" stroke-linecap="butt"/></g><text x="72" y="64" font-family="Consolas, 'Cascadia Mono', 'DejaVu Sans Mono', monospace" font-weight="700" font-size="14" fill="#000">R5</text><g transform="translate(106 60) scale(0.917)"><circle cx="0" cy="0" r="6" fill="none" stroke="#000" stroke-width="2.5"/></g><text x="212" y="64" font-family="Consolas, 'Cascadia Mono', 'DejaVu Sans Mono', monospace" font-weight="700" font-size="14" fill="#000">R2</text><g transform="translate(246 60) scale(0.917)"><circle cx="0" cy="0" r="6" fill="#000" stroke="#000" stroke-width="2.5"/></g><text x="212" y="194" font-family="Consolas, 'Cascadia Mono', 'DejaVu Sans Mono', monospace" font-weight="700" font-size="14" fill="#000">R1</text><g transform="translate(246 190) scale(0.917)"><circle cx="0" cy="0" r="10" fill="none" stroke="#000" stroke-width="2.5"/><circle cx="0" cy="0" r="5" fill="#000" stroke="#000" stroke-width="2.5"/></g><text x="352" y="194" font-family="Consolas, 'Cascadia Mono', 'DejaVu Sans Mono', monospace" font-weight="700" font-size="14" fill="#000">R3</text><g transform="translate(386 190) scale(0.917)"><circle cx="0" cy="0" r="6" fill="none" stroke="#000" stroke-width="2.5"/><path d="M0 -6A6 6 0 0 0 0 6Z" fill="#000" stroke="#000" stroke-width="2.5" stroke-linecap="round" stroke-linejoin="round"/></g><text x="412" y="64" font-family="Consolas, 'Cascadia Mono', 'DejaVu Sans Mono', monospace" font-weight="700" font-size="14" fill="#000">R4</text><g transform="translate(446 60) scale(0.917)"><circle cx="0" cy="0" r="6" fill="none" stroke="#000" stroke-width="2.5"/></g><g transform="translate(226 112)"><path d="M-8 -12V13" fill="none" stroke="#000" stroke-width="2.5" stroke-linecap="round" stroke-linejoin="round"/><path d="M-8 -11L10 -5L-8 1Z" fill="none" stroke="#000" stroke-width="2.5" stroke-linecap="round" stroke-linejoin="round"/></g><g transform="translate(298 94)"><circle cx="0" cy="3" r="7" fill="none" stroke="#000" stroke-width="2.5"/><path d="M-5.2 -2C-11.5 -1.5 -11.5 -8 -7.5 -12" fill="none" stroke="#000" stroke-width="2.5" stroke-linecap="round" stroke-linejoin="round"/><path d="M5.2 -2C11.5 -1.5 11.5 -8 7.5 -12" fill="none" stroke="#000" stroke-width="2.5" stroke-linecap="round" stroke-linejoin="round"/><circle cx="-2.8" cy="2.5" r="1.5" fill="#000"/><circle cx="2.8" cy="2.5" r="1.5" fill="#000"/></g><g transform="translate(298 94)"><path d="M-13 13L13 -13" fill="none" stroke="#fff" stroke-width="6" stroke-linecap="round"/><path d="M-13 13L13 -13" fill="none" stroke="#000" stroke-width="2.5" stroke-linecap="round" stroke-linejoin="round"/></g><text x="316" y="99" font-family="Consolas, 'Cascadia Mono', 'DejaVu Sans Mono', monospace" font-weight="700" font-size="12" fill="#000">&#215;2</text><g transform="translate(268 230)"><path d="M0 -12L12 0L0 12L-12 0Z" fill="none" stroke="#000" stroke-width="2.5" stroke-linecap="round" stroke-linejoin="round"/></g><g transform="translate(268 230)"><path d="M-13 13L13 -13" fill="none" stroke="#fff" stroke-width="6" stroke-linecap="round"/><path d="M-13 13L13 -13" fill="none" stroke="#000" stroke-width="2.5" stroke-linecap="round" stroke-linejoin="round"/></g><g transform="translate(408 230)"><path d="M0 -12L13 11H-13Z" fill="none" stroke="#000" stroke-width="2.5" stroke-linecap="round" stroke-linejoin="round"/><path d="M0 -4V3" fill="none" stroke="#000" stroke-width="2.5" stroke-linecap="round" stroke-linejoin="round"/><circle cx="0" cy="7" r="1.6" fill="#000"/></g>
</svg>
