<svg xmlns="http://www.w3.org/2000/svg" width="520" height="340" viewBox="40 20 520 340">
<!-- Maplog example: a five-room dungeon drawn from the log in section 8.1 -->
<rect x="40" y="20" width="520" height="340" fill="#fff"/><path d="M200 40H340V170H480V300H340V170" fill="none" stroke="#000" stroke-width="4" stroke-linecap="square" stroke-linejoin="miter"/><path d="M200 40V93M200 117V170" fill="none" stroke="#000" stroke-width="4" stroke-linecap="square" stroke-linejoin="miter"/><path d="M200 170H258M282 170H340" fill="none" stroke="#000" stroke-width="4" stroke-linecap="square" stroke-linejoin="miter"/><path d="M200 170V300H258M282 300H340" fill="none" stroke="#000" stroke-width="4" stroke-linecap="square" stroke-linejoin="miter"/><path d="M340 170V223M340 247V300" fill="none" stroke="#000" stroke-width="4" stroke-linecap="square" stroke-linejoin="miter"/><path d="M258 300V338M282 300V338" fill="none" stroke="#000" stroke-width="4" stroke-linecap="square" stroke-linejoin="miter"/><path d="M255 346L261 336" fill="none" stroke="#000" stroke-width="2.5" stroke-linecap="round" stroke-linejoin="round"/><path d="M255 353L261 343" fill="none" stroke="#000" stroke-width="2.5" stroke-linecap="round" stroke-linejoin="round"/><path d="M279 346L285 336" fill="none" stroke="#000" stroke-width="2.5" stroke-linecap="round" stroke-linejoin="round"/><path d="M279 353L285 343" fill="none" stroke="#000" stroke-width="2.5" stroke-linecap="round" stroke-linejoin="round"/><path d="M200 40H60V170H200" fill="none" stroke="#000" stroke-width="4" stroke-dasharray="6 5" stroke-linecap="butt"/><rect x="420" y="40" width="120" height="80" fill="none" stroke="#000" stroke-width="4" stroke-dasharray="6 5"/><g transform="translate(200 105) rotate(90)"><rect x="-12" y="-5" width="24" height="10" fill="#000" stroke="#000" stroke-width="2.5"/></g><g transform="translate(270 170)"><rect x="-12" y="-5" width="24" height="10" fill="none" stroke="#000" stroke-width="2.5"/></g><g transform="translate(480 235)"><rect x="-9.5" y="-8" width="19" height="16" fill="#fff"/><path d="M4 -5.5C4 -8.5 -4 -8.5 -4 -4C-4 0 4 0 4 4C4 8.5 -4 8.5 -4 5.5" fill="none" stroke="#000" stroke-width="2" stroke-linecap="round" stroke-linejoin="round"/></g><path d="M482 223H540M482 247H540" fill="none" stroke="#000" stroke-width="4" stroke-dasharray="6 5" stroke-linecap="butt"/><g transform="translate(300 105)"><circle cx="0" cy="0" r="10" fill="none" stroke="#000" stroke-width="2.5"/><path d="M0.00 -5.20L1.29 -1.78L4.95 -1.61L2.09 0.68L3.06 4.21L0.00 2.20L-3.06 4.21L-2.09 0.68L-4.95 -1.61L-1.29 -1.78Z" fill="none" stroke="#000" stroke-width="1.8" stroke-linecap="round" stroke-linejoin="round"/></g><g transform="translate(240 235)"><rect x="-6" y="-6" width="12" height="12" fill="#000" stroke="#000" stroke-width="1.5"/></g><g transform="translate(300 235)"><rect x="-6" y="-6" width="12" height="12" fill="#000" stroke="#000" stroke-width="1.5"/></g><g transform="translate(270 270)"><rect x="-9" y="-9" width="18" height="18" fill="none" stroke="#000" stroke-width="2.5"/><rect x="-4.5" y="-4.5" width="9" height="9" fill="#000" stroke="#000" stroke-width="1.5"/></g><g transform="translate(452 262)"><rect x="-12" y="-16" width="24" height="32" fill="none" stroke="#000" stroke-width="3.5" stroke-linejoin="miter"/><path d="M-10.25 -12H10.25" fill="none" stroke="#000" stroke-width="1.6" stroke-linecap="round"/><path d="M-10.25 -8H10.25" fill="none" stroke="#000" stroke-width="1.6" stroke-linecap="round"/><path d="M-10.25 -4H10.25" fill="none" stroke="#000" stroke-width="1.6" stroke-linecap="round"/><path d="M-8 0H8" fill="none" stroke="#000" stroke-width="1.6" stroke-linecap="round"/><path d="M-6 4H6" fill="none" stroke="#000" stroke-width="1.6" stroke-linecap="round"/><path d="M-4 8H4" fill="none" stroke="#000" stroke-width="1.6" stroke-linecap="round"/><path d="M-2 12H2" fill="none" stroke="#000" stroke-width="1.6" stroke-linecap="round"/></g><text x="390" y="267" font-family="Consolas, 'Cascadia Mono', 'DejaVu Sans Mono', monospace" font-weight="700" font-size="12" fill="#000">L2, 8</text><g transform="translate(390 215)"><path d="M0 -12L13 11H-13Z" fill="none" stroke="#000" stroke-width="2.5" stroke-linecap="round" stroke-linejoin="round"/><path d="M0 -4V3" fill="none" stroke="#000" stroke-width="2.5" stroke-linecap="round" stroke-linejoin="round"/><circle cx="0" cy="7" r="1.6" fill="#000"/></g><text x="72" y="64" font-family="Consolas, 'Cascadia Mono', 'DejaVu Sans Mono', monospace" font-weight="700" font-size="14" fill="#000">R5</text><text x="212" y="64" font-family="Consolas, 'Cascadia Mono', 'DejaVu Sans Mono', monospace" font-weight="700" font-size="14" fill="#000">R2</text><text x="212" y="194" font-family="Consolas, 'Cascadia Mono', 'DejaVu Sans Mono', monospace" font-weight="700" font-size="14" fill="#000">R1</text><text x="352" y="194" font-family="Consolas, 'Cascadia Mono', 'DejaVu Sans Mono', monospace" font-weight="700" font-size="14" fill="#000">R3</text><text x="432" y="64" font-family="Consolas, 'Cascadia Mono', 'DejaVu Sans Mono', monospace" font-weight="700" font-size="14" fill="#000">R4</text>
</svg>
